<?xml version="1.0" standalone="no"?><!DOCTYPE svg PUBLIC "-//W3C//DTD SVG 1.1//EN" "http://www.w3.org/Graphics/SVG/1.1/DTD/svg11.dtd"><svg t="1616378092951" class="icon" viewBox="0 0 1030 1024" version="1.1" xmlns="http://www.w3.org/2000/svg" p-id="9739" xmlns:xlink="http://www.w3.org/1999/xlink" width="201.171875" height="200"><defs><style type="text/css"></style></defs><path d="M890.88 582.656H629.76c-48.128 0-86.016 38.912-86.016 87.04v261.12c0 48.128 38.912 86.016 86.016 86.016H890.88c48.128 0 86.016-38.912 86.016-86.016V668.672c0-47.104-38.912-86.016-86.016-86.016m-521.216 0H108.544c-48.128 0-87.04 38.912-87.04 87.04v261.12c0 48.128 38.912 86.016 87.04 86.016H368.64c48.128 0 87.04-38.912 87.04-86.016V668.672c0-47.104-38.912-86.016-86.016-86.016m635.904-365.568l-184.32-184.32c-33.792-33.792-88.064-33.792-122.88 0l-25.6 25.6-158.72 158.72c-16.384 16.384-25.6 38.912-25.6 61.44s9.216 45.056 25.6 61.44l25.6 25.6 133.12 133.12 25.6 25.6c33.792 33.792 89.088 33.792 121.856 0l159.744-158.72 25.6-25.6c33.792-34.816 33.792-89.088 0-122.88M369.664 61.44H108.544c-48.128 0-87.04 38.912-87.04 86.016v261.12c0 48.128 38.912 86.016 87.04 86.016H368.64c48.128 0 87.04-38.912 87.04-86.016V147.456c0-48.128-38.912-86.016-86.016-86.016" p-id="9740"></path></svg>