<?xml version="1.0" standalone="no"?><!DOCTYPE svg PUBLIC "-//W3C//DTD SVG 1.1//EN" "http://www.w3.org/Graphics/SVG/1.1/DTD/svg11.dtd"><svg t="1615968932634" class="icon" viewBox="0 0 1024 1024" version="1.1" xmlns="http://www.w3.org/2000/svg" p-id="8332" xmlns:xlink="http://www.w3.org/1999/xlink" width="128" height="128"><defs><style type="text/css"></style></defs><path d="M373.081357 564.934483c0-12.819875-10.399898-23.219773-23.239773-23.219773h-81.099208c-12.819875 0-23.219773 10.399898-23.219774 23.219773v81.099208c0 12.839875 10.399898 23.239773 23.219774 23.239773h81.099208c12.839875 0 23.239773-10.399898 23.239773-23.239773v-81.099208zM575.789377 564.934483c0-12.819875-10.419898-23.219773-23.219773-23.219773h-81.119208c-12.819875 0-23.239773 10.399898-23.239773 23.219773v81.099208c0 12.839875 10.419898 23.239773 23.239773 23.239773h81.119208c12.799875 0 23.219773-10.399898 23.219773-23.239773v-81.099208zM778.487398 564.934483c0-12.819875-10.399898-23.219773-23.219774-23.219773h-81.119207c-12.819875 0-23.219773 10.399898-23.219774 23.219773v81.099208c0 12.839875 10.399898 23.239773 23.219774 23.239773h81.119207c12.819875 0 23.219773-10.399898 23.219774-23.239773v-81.099208zM373.081357 767.652503c0-12.839875-10.399898-23.219773-23.239773-23.219773h-81.099208c-12.819875 0-23.219773 10.379899-23.219774 23.219773v81.079209c0 12.839875 10.399898 23.239773 23.219774 23.239773h81.099208c12.839875 0 23.239773-10.399898 23.239773-23.239773v-81.079209zM575.789377 767.652503c0-12.839875-10.419898-23.219773-23.219773-23.219773h-81.119208c-12.819875 0-23.239773 10.379899-23.239773 23.219773v81.079209c0 12.839875 10.419898 23.239773 23.239773 23.239773h81.119208c12.799875 0 23.219773-10.399898 23.219773-23.239773v-81.079209zM778.487398 767.652503c0-12.839875-10.399898-23.219773-23.219774-23.219773h-81.119207c-12.819875 0-23.219773 10.379899-23.219774 23.219773v81.079209c0 12.839875 10.399898 23.239773 23.219774 23.239773h81.119207c12.819875 0 23.219773-10.399898 23.219774-23.239773v-81.079209z" p-id="8333"></path><path d="M923.525981 114.028886V237.897677c0 55.989453-45.419556 101.099013-101.409009 101.099012h-63.969376c-55.989453 0-101.999004-45.109559-101.999004-101.099012V113.568891h-288.297184V237.897677c0 55.989453-46.019551 101.099013-101.999004 101.099012h-63.969376c-55.989453 0-101.40901-45.109559-101.409009-101.099012V114.028886c-48.909522 1.479986-89.11913 41.94959-89.11913 91.709105v725.942911c0 50.689505 41.089599 92.319098 91.789104 92.319098h817.732014c50.609506 0 91.789104-41.709593 91.789104-92.319098V205.727991c-0.02-49.749514-40.229607-90.229119-89.13913-91.699105z m-29.71971 772.422457c0 21.909786-17.769826 39.699612-39.679612 39.699613H168.113358c-21.909786 0-39.679613-17.789826-39.679612-39.699613V511.495005c0-21.909786 17.769826-39.699612 39.679612-39.699612h686.013301c21.909786 0 39.679613 17.789826 39.679612 39.699612v374.956338z" p-id="8334"></path><path d="M201.653031 272.587338h63.269382c19.199813 0 34.76966-15.549848 34.76966-34.749661V34.76966C299.692073 15.549848 284.122225 0 264.922413 0h-63.269382c-19.199813 0-34.76966 15.549848-34.769661 34.76966v203.058017c-0.01 19.209812 15.569848 34.759661 34.769661 34.759661zM757.337604 272.587338h63.269382c19.199813 0 34.76966-15.549848 34.769661-34.749661V34.76966C855.376647 15.549848 839.806799 0 820.606986 0h-63.269382c-19.199813 0-34.76966 15.549848-34.76966 34.76966v203.058017c-0.01 19.209812 15.559848 34.759661 34.76966 34.759661z" p-id="8335"></path></svg>