<?xml version="1.0" standalone="no"?><!DOCTYPE svg PUBLIC "-//W3C//DTD SVG 1.1//EN" "http://www.w3.org/Graphics/SVG/1.1/DTD/svg11.dtd"><svg t="1615968906154" class="icon" viewBox="0 0 1024 1024" version="1.1" xmlns="http://www.w3.org/2000/svg" p-id="7448" xmlns:xlink="http://www.w3.org/1999/xlink" width="200" height="200"><defs><style type="text/css"></style></defs><path d="M512 981.333333c259.2 0 469.333333-210.133333 469.333333-469.333333S771.2 42.666667 512 42.666667 42.666667 252.8 42.666667 512s210.133333 469.333333 469.333333 469.333333z m0-85.333333a384 384 0 1 1 0-768 384 384 0 0 1 0 768z" p-id="7449"></path><path d="M529.408 684.373333c-8.192-4.394667-26.624-4.394667-34.816 0l-57.216 30.72c-51.029333 27.392-101.802667-6.4-95.829333-64.426666l5.888-56.917334c1.109333-10.709333-5.802667-29.866667-13.653334-37.461333l-41.216-39.808c-41.728-40.32-24.874667-99.413333 32.426667-110.506667l63.573333-12.330666c10.837333-2.090667 28.629333-14.848 34.133334-24.448l31.018666-53.973334c28.16-48.981333 88.490667-48.810667 116.565334 0l30.976 53.973334c5.632 9.728 23.253333 22.357333 34.133333 24.448l63.616 12.330666c57.173333 11.050667 74.538667 69.802667 32.426667 110.506667l-41.173334 39.808c-7.808 7.552-14.805333 26.624-13.696 37.461333l5.888 56.874667c5.973333 57.514667-44.714667 91.904-95.829333 64.469333l-57.216-30.72z m-99.114667-62.336l23.893334-12.842666c33.450667-17.92 82.218667-17.92 115.626666 0l23.893334 12.8-2.048-19.456c-3.84-36.949333 12.714667-81.92 39.253333-107.605334l13.141333-12.672-24.832-4.821333c-35.285333-6.826667-73.984-34.56-91.946666-65.706667L512 385.109333l-15.274667 26.624c-17.877333 31.061333-56.746667 58.88-91.946666 65.706667l-24.832 4.821333 13.098666 12.672c26.752 25.856 43.093333 70.826667 39.253334 107.605334l-2.005334 19.498666z" p-id="7450"></path></svg>