<?xml version="1.0" standalone="no"?><!DOCTYPE svg PUBLIC "-//W3C//DTD SVG 1.1//EN" "http://www.w3.org/Graphics/SVG/1.1/DTD/svg11.dtd"><svg t="1615968858571" class="icon" viewBox="0 0 1024 1024" version="1.1" xmlns="http://www.w3.org/2000/svg" p-id="6306" xmlns:xlink="http://www.w3.org/1999/xlink" width="200" height="200"><defs><style type="text/css"></style></defs><path d="M176.4 63.9h111.9v279.7H176.4zM176.4 679.2h111.9v279.7H176.4zM456.1 63.9H568v111.9H456.1zM456.1 511.4H568v447.5H456.1zM735.8 63.9h111.9v447.5H735.8zM735.8 847h111.9v111.9H735.8zM120.4 623.2h223.8V399.5H120.4v223.7z m56-167.8h111.9v111.9H176.4V455.4zM400.1 455.4h223.8V231.7H400.1v223.7z m56-167.8H568v111.9H456.1V287.6zM679.8 567.3v223.8h223.8V567.3H679.8z m167.8 167.8H735.8V623.2h111.9v111.9z" p-id="6307"></path></svg>