<?xml version="1.0" standalone="no"?><!DOCTYPE svg PUBLIC "-//W3C//DTD SVG 1.1//EN" "http://www.w3.org/Graphics/SVG/1.1/DTD/svg11.dtd"><svg t="1615968862102" class="icon" viewBox="0 0 1024 1024" version="1.1" xmlns="http://www.w3.org/2000/svg" p-id="6431" xmlns:xlink="http://www.w3.org/1999/xlink" width="200" height="200"><defs><style type="text/css"></style></defs><path d="M511.3 63.3c-247.4 0-448 200.6-448 448s200.6 448 448 448 448-200.6 448-448-200.5-448-448-448z m271.6 719.6c-35.3 35.3-76.4 63-122.1 82.3-47.3 20-97.6 30.2-149.5 30.2-51.9 0-102.2-10.1-149.5-30.2-45.7-19.3-86.8-47-122.1-82.3s-63-76.4-82.3-122.1c-20-47.3-30.2-97.6-30.2-149.5s10.1-102.2 30.2-149.5c19.3-45.7 47-86.8 82.3-122.1s76.4-63 122.1-82.3c47.3-20 97.6-30.2 149.5-30.2 51.9 0 102.2 10.1 149.5 30.2 45.7 19.3 86.8 47 122.1 82.3s63 76.4 82.3 122.1c20 47.3 30.2 97.6 30.2 149.5s-10.1 102.2-30.2 149.5c-19.4 45.7-47.1 86.8-82.3 122.1z" p-id="6432"></path><path d="M380 619.1c-14.8 0-26.7 11.9-26.7 26.7 0 14.8 11.9 26.7 26.7 26.7 14.8 0 26.7-11.9 26.7-26.7 0-14.8-11.9-27.2-26.7-26.7z" p-id="6433"></path><path d="M757.1 379.2l-0.1-0.2c-0.5-1.1-0.9-2.4-1.4-3.7-0.4-1.2-0.9-2.4-1.4-3.7-0.8-4.3-2.9-8.5-6.2-12.4-5.9-7.2-14.4-11.3-23.4-11.3-5.2 0-10.3 1.3-14.7 3.9l-1.2 0.7-26.9 26.9-63.2 63.6c-1.4 1.4-3.2 2.1-5.3 2.1-2 0-3.9-0.8-5.3-2.1l-26-26.3c-1.4-1.4-2.1-3.2-2.1-5.3 0-2 0.8-3.9 2.1-5.3l89.2-89.2 0.7-1.2c2.6-4.6 3.9-9.3 3.9-14.7 0-9.6-4.4-18.3-12-24l-0.2-0.1c-3.8-2.7-7.8-4.5-12-5.3-2.7-1.2-5.3-2.1-7.8-2.8-19-6.6-39.1-9.9-59.8-9.9-3.8 0-7.4 0-11.6 0.4-46.6 3-90 23.4-122 57.5-32.3 34.3-50.1 79.3-50.1 126.7 0 7.1 0.3 13.6 1 19.6L285.5 578.4c-39.3 39.7-39.3 104 0 143.3l16 16c19.1 19.1 44.5 29.6 71.7 29.6 27.2 0 52.6-10.5 71.7-29.6l111.8-112.2c8.6 1.4 17.6 2.1 27.2 2.1 46.8 0 91.4-17.5 125.6-49.4 34-31.7 54.7-74.6 58.1-120.8 0.4-4.6 0.4-9.3 0.4-13.9 0.4-21.8-3.3-43.4-10.9-64.1v-0.2zM582.7 563.8c-11.7 0-23.3-1.6-35.4-5l-8-2.2-4 7.3c-1.5 2.6-3.8 5.3-6.3 8.2l-124 124c-8.1 8.1-19 12.6-30.7 12.6s-22.6-4.5-30.7-12.6l-13.9-13.9c-16.8-17.1-16.8-44.7 0-61.4L454 496.4c2.1-2.1 4.6-4.1 7.6-5.9l7-4.4-2.5-7.8c-3.7-11.6-5.6-24-5.6-37v-0.8c0-67.3 54.9-122 122.4-122 1.3 0 2.6 0 3.9 0.1l-40.9 40.6c-14.1 14.1-21.9 32.9-21.9 53s7.8 38.9 21.9 53l14.4 14.4c14.1 14.1 32.9 21.9 53 21.9s38.9-7.8 53-21.9l39-39v0.8c-0.2 67.5-55.1 122.4-122.6 122.4z" p-id="6434"></path></svg>