<?xml version="1.0" standalone="no"?><!DOCTYPE svg PUBLIC "-//W3C//DTD SVG 1.1//EN" "http://www.w3.org/Graphics/SVG/1.1/DTD/svg11.dtd"><svg t="1615980989203" class="icon" viewBox="0 0 1024 1024" version="1.1" xmlns="http://www.w3.org/2000/svg" p-id="19214" xmlns:xlink="http://www.w3.org/1999/xlink" width="200" height="200"><defs><style type="text/css"></style></defs><path d="M931.352045 641.817587a25.590813 25.590813 0 0 1 13.460767 33.626329c-68.992832 161.119758-189.52556 259.490843-359.346195 293.270715A76.82362 76.82362 0 0 1 435.043819 946.860077a76.772439 76.772439 0 0 1 147.556627-29.838888c149.450347-31.732608 253.860864-118.434282 315.12527-261.742834a25.590813 25.590813 0 0 1 33.626329-13.460768zM511.816258 921.269264a25.590813 25.590813 0 1 0 25.590813 25.590813v-0.051181-0.358272A25.48845 25.48845 0 0 0 511.816258 921.269264zM76.772439 435.043819a76.772439 76.772439 0 0 1 29.838888 147.556627c31.630245 149.245621 118.331919 253.553774 261.742834 315.176452a25.590813 25.590813 0 0 1-20.165561 46.984733c-161.222121-69.197558-259.593206-189.730287-293.270716-359.295014A76.874802 76.874802 0 0 1 76.772439 435.043819zM511.816258 277.609138l129.028879 73.701541a76.772439 76.772439 0 1 1 75.748806 130.564328L716.542761 629.022181l-204.726503 117.001197-204.726503-117.001197V481.875007A76.772439 76.772439 0 1 1 382.685016 351.105953L511.816258 277.609138zM511.816258 336.51919L408.224647 395.582786A76.772439 76.772439 0 0 1 358.271381 481.875007L358.271381 599.234475l153.544877 87.725306 153.544877-87.776488V481.875007a76.772439 76.772439 0 0 1-49.953266-86.138676L511.765076 336.51919z m163.627658-257.699486c159.277219 68.071562 257.494759 188.553109 293.168352 359.295013a76.772439 76.772439 0 1 1-51.795805 3.070897c-33.37042-150.47398-120.020912-254.884496-261.435745-315.278815a25.590813 25.590813 0 0 1 20.063198-47.087095zM946.860077 486.225445a25.590813 25.590813 0 1 0 0 51.181626 25.590813 25.590813 0 0 0 0-51.181626z m-870.087638 0a25.590813 25.590813 0 0 0-0.153545 51.181626l-4.09453 0.358271a25.744358 25.744358 0 0 1 4.708709-0.358271 25.590813 25.590813 0 0 0-0.460634-51.181626z m255.908129-102.363252a25.590813 25.590813 0 1 0 0 51.181626 25.590813 25.590813 0 0 0 0-51.181626z m358.27138 0a25.590813 25.590813 0 1 0 0 51.181626 25.590813 25.590813 0 0 0 0-51.181626zM511.816258 0a76.772439 76.772439 0 1 1-70.784189 106.611327C291.786449 138.036845 187.478295 224.687337 125.906799 368.354161a25.590813 25.590813 0 0 1-47.087095-20.165561c69.24874-161.426848 189.781468-259.797933 359.397376-293.321897A76.82362 76.82362 0 0 1 511.816258 0z m0 51.181626a25.590813 25.590813 0 1 0 0 51.181626 25.590813 25.590813 0 0 0 0-51.181626z" p-id="19215"></path></svg>