<?xml version="1.0" standalone="no"?><!DOCTYPE svg PUBLIC "-//W3C//DTD SVG 1.1//EN" "http://www.w3.org/Graphics/SVG/1.1/DTD/svg11.dtd"><svg t="1615968947254" class="icon" viewBox="0 0 1024 1024" version="1.1" xmlns="http://www.w3.org/2000/svg" p-id="8886" xmlns:xlink="http://www.w3.org/1999/xlink" width="200" height="200"><defs><style type="text/css"></style></defs><path d="M905.998 755.915c-21.583-50.948-52.4-96.604-91.623-135.826-39.222-39.223-84.982-70.04-135.826-91.623-10.48-4.462-21.064-8.405-31.751-11.933 13.904-9.131 26.978-19.715 38.91-31.752 46.383-46.382 71.909-108.017 71.909-173.595 0-65.579-25.526-127.422-71.908-173.7C639.327 91.208 577.69 65.474 512.113 65.474 446.534 65.474 384.899 91 338.517 137.382c-46.382 46.382-71.908 108.018-71.908 173.596s25.526 127.214 71.908 173.596c12.036 12.037 25.11 22.62 38.911 31.752-10.687 3.527-21.271 7.574-31.751 11.932-50.948 21.583-96.604 52.4-135.826 91.623-39.223 39.223-70.04 84.982-91.623 135.826C95.918 808.627 84.608 864.555 84.608 922.351c0 20.026 16.291 36.317 36.317 36.317H903.3c20.027 0 36.317-16.29 36.317-36.317 0-57.796-11.31-113.724-33.619-166.436zM512.113 138.109c95.358 0 172.87 77.614 172.87 172.87 0 95.357-77.616 172.869-172.87 172.869-95.255 0-172.87-77.615-172.87-172.87 0-95.255 77.511-172.87 172.87-172.87zM159.11 886.034c8.198-81.04 43.685-156.268 102.103-214.582 67.031-67.031 156.164-103.971 250.9-103.971 94.736 0 183.868 36.836 250.9 103.867 58.418 58.418 93.905 133.543 102.102 214.582H159.11v0.104z" p-id="8887"></path></svg>