<?xml version="1.0" standalone="no"?><!DOCTYPE svg PUBLIC "-//W3C//DTD SVG 1.1//EN" "http://www.w3.org/Graphics/SVG/1.1/DTD/svg11.dtd"><svg t="1615968929472" class="icon" viewBox="0 0 1024 1024" version="1.1" xmlns="http://www.w3.org/2000/svg" p-id="8207" xmlns:xlink="http://www.w3.org/1999/xlink" width="200" height="200"><defs><style type="text/css"></style></defs><path d="M884.437333 252.586667A67.84 67.84 0 0 1 917.333333 311.061333V712.96c0 24.128-12.586667 46.314667-32.896 58.453333l-339.605333 200.96a64.682667 64.682667 0 0 1-65.813333 0l-339.456-200.96A67.84 67.84 0 0 1 106.666667 712.96V311.04c0-24.128 12.586667-46.314667 32.896-58.453333l339.456-200.96a64.682667 64.682667 0 0 1 65.813333 0l339.605333 200.96z m-185.088 442.666666V768L810.666667 661.674667l-111.317334-114.709334v72.746667h-43.456c-10.858667 0-18.986667-5.589333-27.136-11.178667l-51.584-53.162666-51.605333 53.162666 51.605333 53.141334c21.717333 22.4 48.853333 33.578667 78.72 33.578666h43.456z m0-363.712h-43.456c-29.866667 0-57.002667 13.994667-78.72 33.578667L321.92 614.122667c-8.149333 8.384-16.298667 11.178667-27.157333 11.178666H213.333333v72.746667h81.450667c29.866667 0 57.024-13.973333 78.741333-33.557333l255.232-249.024c8.149333-8.384 16.277333-11.178667 27.136-11.178667h43.456v72.746667L810.666667 370.709333 699.349333 256v75.541333z m-325.824 134.293334l51.584-47.573334-51.584-53.141333c-21.717333-22.4-48.853333-33.578667-78.72-33.578667H213.333333v72.746667h81.450667c10.88 0 19.008 5.589333 27.157333 11.178667l51.584 50.368z" p-id="8208"></path></svg>