<?xml version="1.0" standalone="no"?><!DOCTYPE svg PUBLIC "-//W3C//DTD SVG 1.1//EN" "http://www.w3.org/Graphics/SVG/1.1/DTD/svg11.dtd"><svg t="1616739164443" class="icon" viewBox="0 0 1024 1024" version="1.1" xmlns="http://www.w3.org/2000/svg" p-id="5097" xmlns:xlink="http://www.w3.org/1999/xlink" width="200" height="200"><defs><style type="text/css"></style></defs><path d="M512 0a512 512 0 1 1 0 1024A512 512 0 0 1 512 0z m2.633143 711.241143a43.300571 43.300571 0 1 0 0 86.601143 43.300571 43.300571 0 0 0 0-86.601143z m-0.512-498.102857a178.249143 178.249143 0 0 0-126.683429 52.662857 178.395429 178.395429 0 0 0-52.443428 126.829714 35.986286 35.986286 0 1 0 72.045714 0c0-59.245714 48.201143-107.446857 107.52-107.52 30.72 0 60.269714 12.580571 81.188571 34.596572 18.358857 19.309714 27.648 43.812571 26.331429 69.12-1.024 21.723429-2.194286 42.203429-66.633143 106.715428-40.301714 40.228571-76.946286 80.603429-81.846857 130.486857-1.901714 19.748571 12.507429 37.522286 32.329143 39.350857a35.986286 35.986286 0 0 0 39.424-32.329142c2.267429-23.625143 24.941714-50.614857 61.001143-86.601143C677.302857 475.428571 691.565714 438.857143 694.052571 392.630857a164.059429 164.059429 0 0 0-46.08-122.514286 184.758857 184.758857 0 0 0-133.851428-57.051428z" p-id="5098"></path></svg>