<?xml version="1.0" standalone="no"?><!DOCTYPE svg PUBLIC "-//W3C//DTD SVG 1.1//EN" "http://www.w3.org/Graphics/SVG/1.1/DTD/svg11.dtd"><svg t="1615980986192" class="icon" viewBox="0 0 1024 1024" version="1.1" xmlns="http://www.w3.org/2000/svg" p-id="19089" xmlns:xlink="http://www.w3.org/1999/xlink" width="200" height="200"><defs><style type="text/css"></style></defs><path d="M650.971429 577.828571c-21.942857 0-43.885714 21.942857-43.885715 43.885715v270.628571c0 21.942857 21.942857 43.885714 43.885715 43.885714s43.885714-21.942857 43.885714-43.885714V621.714286c0-29.257143-21.942857-43.885714-43.885714-43.885715z m-438.857143 51.2c-21.942857 0-43.885714 21.942857-43.885715 43.885715v219.428571c0 21.942857 21.942857 43.885714 43.885715 43.885714s43.885714-21.942857 43.885714-43.885714v-219.428571c0-21.942857-21.942857-43.885714-43.885714-43.885715z m219.428571-160.914285c-29.257143 0-51.2 21.942857-51.2 43.885714v380.342857c0 21.942857 21.942857 43.885714 43.885714 43.885714s43.885714-21.942857 43.885715-43.885714V512c7.314286-21.942857-14.628571-43.885714-36.571429-43.885714z m431.542857 0c-21.942857 0-43.885714 21.942857-43.885714 43.885714v380.342857c0 21.942857 21.942857 43.885714 43.885714 43.885714s43.885714-21.942857 43.885715-43.885714V512c7.314286-21.942857-14.628571-43.885714-43.885715-43.885714z m73.142857-380.342857c-7.314286 0-14.628571-7.314286-21.942857-7.314286h-160.914285c-21.942857 0-43.885714 21.942857-43.885715 51.2s21.942857 43.885714 43.885715 43.885714h51.2l-219.428572 219.428572-175.542857-190.171429c-14.628571-7.314286-29.257143-14.628571-36.571429-14.628571-7.314286 0-14.628571 0-14.628571 7.314285-7.314286 0-7.314286 7.314286-14.628571 7.314286L73.142857 475.428571c-21.942857 21.942857-21.942857 51.2 0 65.828572 7.314286 7.314286 21.942857 14.628571 36.571429 14.628571s21.942857-7.314286 36.571428-14.628571l241.371429-241.371429 190.171428 190.171429c-7.314286 7.314286 7.314286 14.628571 14.628572 14.628571s21.942857 0 21.942857-7.314285l7.314286-7.314286L877.714286 241.371429V292.571429c0 21.942857 21.942857 43.885714 43.885714 43.885714s43.885714-21.942857 43.885714-43.885714V131.657143c0-21.942857-14.628571-36.571429-29.257143-43.885714z" p-id="19090"></path></svg>