<?xml version="1.0" standalone="no"?><!DOCTYPE svg PUBLIC "-//W3C//DTD SVG 1.1//EN" "http://www.w3.org/Graphics/SVG/1.1/DTD/svg11.dtd"><svg t="1616726523958" class="icon" viewBox="0 0 1024 1024" version="1.1" xmlns="http://www.w3.org/2000/svg" p-id="1648" xmlns:xlink="http://www.w3.org/1999/xlink" width="200" height="200"><defs><style type="text/css"></style></defs><path d="M512 98.2C283.6 98.2 98.2 283.6 98.2 512S283.6 925.8 512 925.8 925.8 740.4 925.8 512 740.4 98.2 512 98.2z m237.4 306.5L481.7 672.3c-12.3 12.3-31.2 14.2-45.4 5.7-2.8-1.4-5.2-3.3-7.6-5.7L274.6 518.2a37.36 37.36 0 0 1 0-53 37.36 37.36 0 0 1 53 0l127.7 127.7 241.2-241.2a37.36 37.36 0 0 1 53 0c14.6 14.6 14.6 38.3-0.1 53z m0 0" fill="#3DCC5E" p-id="1649"></path></svg>