<?xml version="1.0" standalone="no"?><!DOCTYPE svg PUBLIC "-//W3C//DTD SVG 1.1//EN" "http://www.w3.org/Graphics/SVG/1.1/DTD/svg11.dtd"><svg t="1616726570551" class="icon" viewBox="0 0 1024 1024" version="1.1" xmlns="http://www.w3.org/2000/svg" p-id="4188" xmlns:xlink="http://www.w3.org/1999/xlink" width="200" height="200"><defs><style type="text/css"></style></defs><path d="M512 925.8C283.5 925.8 98.2 740.5 98.2 512S283.5 98.2 512 98.2 925.8 283.5 925.8 512 740.5 925.8 512 925.8zM687.5 395c16.2-16.2 16.2-42.4 0-58.5-16.2-16.2-42.4-16.2-58.5 0l-117 117-117-117c-16.2-16.2-42.4-16.2-58.5 0-16.2 16.2-16.2 42.4 0 58.5l117 117-117 117c-16.2 16.2-16.2 42.4 0 58.5 16.2 16.2 42.4 16.2 58.5 0l117-117 117 117c16.2 16.2 42.4 16.2 58.5 0 16.2-16.2 16.2-42.4 0-58.5l-117-117 117-117z" fill="#DB2E16" p-id="4189"></path></svg>