<?xml version="1.0" standalone="no"?><!DOCTYPE svg PUBLIC "-//W3C//DTD SVG 1.1//EN" "http://www.w3.org/Graphics/SVG/1.1/DTD/svg11.dtd"><svg t="1615968926148" class="icon" viewBox="0 0 1024 1024" version="1.1" xmlns="http://www.w3.org/2000/svg" p-id="8082" xmlns:xlink="http://www.w3.org/1999/xlink" width="200" height="200"><defs><style type="text/css"></style></defs><path d="M511.5 64.79c61.02 0 116.04 49.54 155.62 139.27 2.55 5.94 5.14 11.88 7.28 17.82 26.03-5.2 52.51-7.9 79.06-8.04 86.03 0 125.11 33.01 142.76 60.93 32.25 50.83 19.34 123.23-37.39 203.68-7.73 10.99-16.35 22.02-25.37 33.01 9.47 10.99 17.64 22.02 25.37 33.05 56.28 80.4 69.64 152.81 37.39 203.64-17.64 27.91-56.73 60.97-142.71 60.97-24.52 0-50.74-3-79.06-8.04-2.26 6-4.7 11.93-7.33 17.78-39.57 89.69-94.6 139.27-155.62 139.27-61.06 0-116.09-49.54-155.62-139.27-2.63-5.87-5.07-11.81-7.33-17.82-26.04 5.2-52.51 7.9-79.06 8.04-85.98 0-125.07-33.01-142.71-60.92-32.25-50.83-18.94-123.24 37.39-203.68 7.73-10.99 16.34-22.02 25.37-33.01-9-10.6-17.46-21.63-25.37-33.06-56.28-80.4-69.68-152.76-37.39-203.59 17.6-27.92 56.73-60.97 142.71-60.97 24.08 0 50.7 2.99 79.06 8.04 2.19-5.9 4.73-11.83 7.33-17.78 39.53-89.74 94.56-139.32 155.62-139.32z m0.45 683.36c-25.37 10.99-50.74 21.17-75.67 29.61-11.16 3.79-22.33 7.19-33.55 10.59l3.89 9.33c29.66 67.72 67.9 106.67 104.88 106.67 36.94 0 75.22-38.95 104.88-106.67 1.3-2.99 2.59-6.38 4.73-9.33-11.16-3.4-22.33-6.79-33.5-10.59a737.399 737.399 0 0 1-75.71-29.61h0.05z m-285.42-195.2c-6.03 7.59-12.06 15.23-17.24 22.87-42.52 60.52-55.43 113.01-36.09 143.96 18.49 29.21 62.31 35.11 95.85 35.11 19.34 0 39.98-2.1 61.46-5.9-11.17-38.55-19.34-80.85-24.48-125.34a807.838 807.838 0 0 1-79.5-70.7z m569.94 0c-23.63 24.12-50.3 47.84-79.51 70.71-4.7 42.38-12.9 84.31-24.52 125.34 21.93 3.79 42.16 5.5 61.51 5.5 33.5 0 77.36-5.94 95.85-35.16 19.34-30.91 6.43-83.39-36.14-143.96-5.57-7.15-11.15-14.79-17.19-22.43zM654.21 669.4c-9.87 6.75-20.19 13.09-30.51 19.48-15.5 9.74-31.4 18.63-47.75 27.51 21.08 8.04 42.12 15.19 62.35 20.73 6.44-21.58 11.62-44.45 15.91-67.72z m-285.87-0.45c4.29 23.68 9.87 46.59 15.9 67.76 20.23-5.54 41.27-12.73 62.35-20.77-15.9-8.49-31.85-17.78-47.75-27.51-10.26-6.34-20.42-12.83-30.5-19.48z m143.2-334.06c-27.51 13.58-55.47 28.81-82.99 45.74-24.48 15.23-48.11 30.91-70.04 47.44a882.89 882.89 0 0 0-3.93 83.39c0 28.36 1.3 56.28 3.89 83.39 22.33 16.52 45.56 32.16 70.04 47.43 27.52 16.98 55.03 32.16 82.99 45.74 28.35-13.94 56.03-29.21 82.95-45.74a955.633 955.633 0 0 0 70.08-47.43c2.59-27.07 3.84-55.03 3.84-83.39 0-28.37-1.25-56.28-3.84-83.39-22.33-16.53-45.56-32.16-70.08-47.44-27.51-16.98-55.03-32.16-82.95-45.74h0.04z m0 119.4c36.94 0 67.45 29.66 67.45 66.51 0 36.8-30.51 66.46-67.45 66.46-37.38 0-67.49-30.06-67.49-66.46 0-36.85 30.51-66.51 67.45-66.51h0.04z m-211.5 21.17c-13.31 11.88-25.77 23.72-37.38 36 11.61 12.28 24.08 24.12 37.38 36-0.44-11.88-0.44-23.72-0.44-36 0-11.84 0-24.12 0.44-36z m422.56 0c0.45 11.88 0.89 24.12 0.89 36 0 11.83-0.44 24.12-0.89 36 13.31-11.88 25.77-23.72 37.38-36a596.19 596.19 0 0 0-37.38-36zM269.49 268.47c-33.55 0-77.81 5.94-96.3 35.15-19.34 30.91-6.43 83.39 36.09 143.96 5.58 7.6 11.17 15.23 17.2 22.87 23.68-24.12 50.29-47.88 79.51-70.71a732.689 732.689 0 0 1 24.97-125.78c-20.33-3.4-40.9-5.23-61.51-5.5h0.04z m484.02 0c-18.9 0-39.53 1.7-61.91 5.94 11.16 38.55 19.79 80.85 24.92 125.33a810.494 810.494 0 0 1 79.51 70.71c6.03-7.64 12.06-15.28 17.24-22.87 42.52-60.57 55.43-113.05 36.09-143.96-18.05-29.21-62.31-35.15-95.85-35.15z m-114.8 18.22c-20.19 5.5-41.23 12.69-62.31 20.73 15.9 8.49 31.8 17.78 47.71 27.51 10.32 6.38 20.23 12.73 30.5 19.48-4.4-22.77-9.71-45.36-15.9-67.72z m-254.02-0.44c-6.48 21.18-12.06 44.49-16.35 68.17 10.32-6.75 20.64-13.54 30.96-19.88 15.45-9.34 31.4-18.63 47.71-27.52-21.45-8.04-42.13-14.83-62.32-20.77zM511.5 119.46c-36.98 0-75.22 38.5-104.88 106.26-1.34 2.95-3.04 5.94-3.89 8.89 11.17 3.4 22.33 7.19 32.65 11.43 24.97 8.04 50.29 18.18 75.67 29.61a990.548 990.548 0 0 1 75.67-29.61c11.16-3.8 22.33-7.19 33.5-10.59l-3.84-9.33c-29.66-67.71-67.9-106.66-104.88-106.66z m0 0" p-id="8083"></path></svg>