<?xml version="1.0" standalone="no"?><!DOCTYPE svg PUBLIC "-//W3C//DTD SVG 1.1//EN" "http://www.w3.org/Graphics/SVG/1.1/DTD/svg11.dtd"><svg t="1615980643955" class="icon" viewBox="0 0 1024 1024" version="1.1" xmlns="http://www.w3.org/2000/svg" p-id="14892" xmlns:xlink="http://www.w3.org/1999/xlink" width="128" height="128"><defs><style type="text/css"></style></defs><path d="M494.592 0.2048L51.456 256.1024v511.7952l443.2384 255.8976 443.1872-255.8976V256.1024L494.6432 0.2048z m255.7952 622.2848V364.3392l-229.7856-133.632V65.1776l370.5344 218.0608v425.984l-140.7488-86.7328z m-61.44-242.6368L494.4896 474.7264 305.152 374.3744l194.048-108.3904 189.7472 113.8688z m-405.2992 36.0448l187.5456 100.7104v228.1984L282.112 634.3168l1.5872-218.4192z m233.3184 330.9568l-1.6384-230.2976 192.512-101.5296v220.6208l-190.8736 111.2064zM472.0128 228.4544L238.848 364.3392v259.328l-141.4656 86.016V281.2928l374.6304-215.5008v162.6624zM115.9168 752.64l138.24-84.0704 240.4864 138.8544 239.5136-138.3936 132.5056 83.6096-374.272 217.3952L115.9168 752.64z" p-id="14893"></path></svg>