<?xml version="1.0" standalone="no"?><!DOCTYPE svg PUBLIC "-//W3C//DTD SVG 1.1//EN" "http://www.w3.org/Graphics/SVG/1.1/DTD/svg11.dtd"><svg t="1615968939155" class="icon" viewBox="0 0 1024 1024" version="1.1" xmlns="http://www.w3.org/2000/svg" p-id="8635" xmlns:xlink="http://www.w3.org/1999/xlink" width="200" height="200"><defs><style type="text/css"></style></defs><path d="M202.666667 149.333333C138.24 149.333333 85.333333 202.24 85.333333 266.666667v170.666666C85.333333 501.76 138.24 554.666667 202.666667 554.666667h10.666666v74.666666c0 64.682667 52.629333 117.333333 117.333334 117.333334H469.333333c0-22.058667 2.837333-43.413333 7.701334-64H330.666667a53.397333 53.397333 0 0 1-53.333334-53.333334v-170.666666c0-29.418667 23.936-53.333333 53.333334-53.333334h490.666666c29.397333 0 53.333333 23.914667 53.333334 53.333334v42.133333a277.76 277.76 0 0 1 64 46.037333V458.666667c0-64.682667-52.629333-117.333333-117.333334-117.333334H810.666667v-74.666666C810.666667 202.24 757.76 149.333333 693.333333 149.333333h-490.666666z m0 64h490.666666c29.824 0 53.333333 23.509333 53.333334 53.333334V341.333333H330.666667a117.461333 117.461333 0 0 0-117.333334 117.333334V490.666667h-10.666666A52.864 52.864 0 0 1 149.333333 437.333333v-170.666666C149.333333 236.842667 172.842667 213.333333 202.666667 213.333333zM746.666667 512c-129.6 0-234.666667 105.066667-234.666667 234.666667s105.066667 234.666667 234.666667 234.666666 234.666667-105.066667 234.666666-234.666666-105.066667-234.666667-234.666666-234.666667z m0 64a21.333333 21.333333 0 0 1 21.333333 21.333333v128h128a21.333333 21.333333 0 0 1 0 42.666667h-128v128a21.333333 21.333333 0 0 1-42.666667 0v-128h-128a21.333333 21.333333 0 0 1 0-42.666667h128v-128a21.333333 21.333333 0 0 1 21.333334-21.333333z" p-id="8636"></path></svg>