<?xml version="1.0" standalone="no"?><!DOCTYPE svg PUBLIC "-//W3C//DTD SVG 1.1//EN" "http://www.w3.org/Graphics/SVG/1.1/DTD/svg11.dtd"><svg t="1615968921893" class="icon" viewBox="0 0 1024 1024" version="1.1" xmlns="http://www.w3.org/2000/svg" p-id="7957" xmlns:xlink="http://www.w3.org/1999/xlink" width="200" height="200"><defs><style type="text/css"></style></defs><path d="M512 0.000512a510.20749 510.20749 0 0 1 362.034838 149.96465A510.25869 510.25869 0 0 1 1023.999488 512c0 43.647956-5.401595 86.451114-16.127984 127.999872h-78.745521a434.431566 434.431566 0 0 0 16.051184-76.902323l1.331198-13.183987H820.223692c-1.535998 30.10557-5.913594 60.18554-13.158387 90.08631h-78.438322c7.372793-25.651174 12.236788-51.455949 14.643186-77.209523l0.972799-12.876787h-194.303806v123.212677a2445.258355 2445.258355 0 0 1 64.460736 1.740798l-0.0256 76.031924a2389.96241 2389.96241 0 0 0-43.366357-1.407998l-21.068779-0.4096v162.047838a742.911257 742.911257 0 0 0 64.435136-66.713533L614.399898 1013.785098A513.919486 513.919486 0 0 1 512 1023.999488a510.20749 510.20749 0 0 1-362.034838-149.96465A510.23309 510.23309 0 0 1 0.000512 512 510.23309 510.23309 0 0 1 149.965162 149.965162 510.25869 510.25869 0 0 1 512 0.000512z m316.031684 861.311139v103.244696A59.443141 59.443141 0 0 1 768.588543 1023.999488h-43.545556A59.443141 59.443141 0 0 1 665.599846 964.556347v-43.801556a59.443141 59.443141 0 0 1 59.443141-59.44314h102.988697z m136.524663 0A59.443141 59.443141 0 0 1 1023.999488 920.754791v43.801556A59.443141 59.443141 0 0 1 964.530747 1023.999488h-44.031955a59.443141 59.443141 0 0 1-59.417541-59.443141v-103.244696z m-695.730504-100.0191c-42.751957 4.403196-78.335922 9.267191-105.036695 13.414386 12.211188 16.127984 25.523174 31.385569 39.80796 45.695955a433.714766 433.714766 0 0 0 189.183811 111.308688 803.634396 803.634396 0 0 1-42.316757-47.385552 688.383312 688.383312 0 0 1-81.638319-123.033477z m205.260595-12.134388a2415.869584 2415.869584 0 0 0-122.572678 5.119995 632.242568 632.242568 0 0 0 56.140744 80.17912 733.208867 733.208867 0 0 0 59.596741 64.358335l6.835193 6.451194v-156.108644zM768.588543 665.599846a59.443141 59.443141 0 0 1 59.443141 59.443141v103.244697h-102.988697A59.443141 59.443141 0 0 1 665.599846 768.844543v-43.801556A59.443141 59.443141 0 0 1 725.042987 665.599846z m195.967804 0c32.127968 0 58.316742 25.497575 59.391941 57.343943l0.0512 2.099198v43.801556a59.443141 59.443141 0 0 1-57.343943 59.391941l-2.099198 0.0512h-103.475096v-103.244697a59.443141 59.443141 0 0 1 56.831943-59.391941l2.611197-0.0512h44.031956z m0 17.919982h-44.031956a41.523158 41.523158 0 0 0-41.471958 39.321561l-0.0512 2.201598v85.324715h85.555114c22.271978 0 40.47356-17.561582 41.471959-39.628761l0.0512-1.894398v-43.801556c0-22.297578-17.561582-40.49916-39.62876-41.471959l-1.894399-0.0512z m-754.431245-133.606266h-132.607868a432.562767 432.562767 0 0 0 43.110357 155.033445c24.678375-4.351996 64.639935-10.700789 116.889483-16.588783a497.586702 497.586702 0 0 1-27.391972-138.444662z m263.935736 0h-187.955012a428.543571 428.543571 0 0 0 29.49117 130.943869 2497.763902 2497.763902 0 0 1 126.131074-6.886393l32.358368-0.742399v-123.315077z m246.143754-206.745393a2359.421641 2359.421641 0 0 1-149.478251 7.961592l-20.787179 0.383999v122.547078h193.228607a613.119387 613.119387 0 0 0-22.963177-130.892669z m-410.11159 0.2048a604.031396 604.031396 0 0 0-21.683178 115.353484l-1.228799 15.359985h186.879813v-122.649477a2517.680682 2517.680682 0 0 1-163.967836-8.063992zM120.320392 319.667392a432.101968 432.101968 0 0 0-41.599959 141.926258l-1.254398 12.467188h133.657466c3.071997-48.511951 10.521589-94.719905 22.271978-138.239862a1906.455694 1906.455694 0 0 1-113.075087-16.127984z m783.410416 0.1792c-35.507164 6.041594-71.167929 11.212789-106.956693 15.487985a691.199309 691.199309 0 0 1 21.196779 122.572677l1.203199 16.153584h127.308673a432.613967 432.613967 0 0 0-42.751958-154.214246zM549.939162 99.507612v176.076624a2362.493638 2362.493638 0 0 0 142.028658-6.323193 447.308353 447.308353 0 0 0-69.65753-105.523095 408.985191 408.985191 0 0 0-72.371128-64.230336z m-75.852724 4.505596a411.724388 411.724388 0 0 0-68.659131 62.694337 445.132355 445.132355 0 0 0-61.004739 90.26551l-6.143994 12.492788 13.235186 0.921599c30.591969 2.047998 61.235139 3.532796 91.903909 4.428795l30.668769 0.691199v-171.519828z m-112.767887-1.535998a434.764365 434.764365 0 0 0-157.721443 101.119898c-14.463986 14.463986-27.903972 29.95197-40.243159 46.259154 24.575975 3.839996 56.729543 8.294392 95.078305 12.415988a527.871472 527.871472 0 0 1 102.886297-159.769441z m311.244488 3.788796a527.794672 527.794672 0 0 1 99.174301 155.571044 2101.169099 2101.169099 0 0 0 89.011111-11.827188 442.290758 442.290758 0 0 0-40.345559-46.412754 435.148365 435.148365 0 0 0-147.839853-97.331102z" p-id="7958"></path></svg>