<?xml version="1.0" standalone="no"?><!DOCTYPE svg PUBLIC "-//W3C//DTD SVG 1.1//EN" "http://www.w3.org/Graphics/SVG/1.1/DTD/svg11.dtd"><svg t="1616042993757" class="icon" viewBox="0 0 1024 1024" version="1.1" xmlns="http://www.w3.org/2000/svg" p-id="19339" width="18" height="18" xmlns:xlink="http://www.w3.org/1999/xlink"><defs><style type="text/css"></style></defs><path d="M834.2 453.4c-8.2-102-93.6-180.4-196-179.7-9.4 0-18.7 0.8-28 2.2C545.7 200 440.9 172 347.1 205.6c-93.6 33.1-156.4 121.4-157 220.6V454C90.2 490.8 39.1 601.7 76 701.5c9.8 26.6 25.3 50.6 45.5 70.5 36.9 36.5 86.7 56.9 138.6 56.9h504.2c51.9 0 101.7-20.4 138.6-56.9 75.9-75 76.6-197.4 1.6-273.3-19.8-20-43.8-35.5-70.3-45.3z m-70 320.1H260.1c-76.2 1.1-138.9-59.8-140.1-136-0.9-64.3 42.6-120.7 105.1-136.1l21-5.2v-69.3C246.2 348 297.6 278.3 373 255c75.5-23.8 157.7 3.7 203.7 68.1l10.9 15.3 18.2-4.4c10.6-2.6 21.5-4 32.5-4.2 77-0.4 139.7 61.7 140.1 138.7v27.7l21 5c74.1 18.5 119.1 93.5 100.7 167.5-15.7 62.1-71.8 105.5-135.9 104.8z" p-id="19340"></path></svg>