<?xml version="1.0" standalone="no"?><!DOCTYPE svg PUBLIC "-//W3C//DTD SVG 1.1//EN" "http://www.w3.org/Graphics/SVG/1.1/DTD/svg11.dtd"><svg t="1615969824411" class="icon" viewBox="0 0 1024 1024" version="1.1" xmlns="http://www.w3.org/2000/svg" p-id="12891" xmlns:xlink="http://www.w3.org/1999/xlink" width="200" height="200"><defs><style type="text/css"></style></defs><path d="M512 787.625c-89.4375 0-186.1875-44.43750000000001-287.4375-132.1875C150.31250000000006 591.3125 102.5 528.3125 100.24999999999994 525.5a21.960000000000004 21.960000000000004 0 0 1 0-26.999999999999996c8.4375-10.6875 200.8125-262.125 411.75000000000006-262.125 89.4375 0 186.1875 44.43750000000001 287.4375 132.1875 74.25 64.12499999999999 122.62500000000001 127.125 124.3125 129.9375a21.960000000000004 21.960000000000004 0 0 1 0 26.999999999999996c-8.4375 10.6875-200.8125 262.125-411.75000000000006 262.125zM138.03199999999998 512c43.7895 52.434 207.4365 236.25 373.968 236.25 166.52700000000002 0 330.17400000000004-183.816 373.968-236.25-43.794-52.434-207.441-236.25-373.968-236.25S181.82600000000002 459.56600000000003 138.03199999999998 512z" fill="#707070" p-id="12892"></path><path d="M512 675.125c-90 0-163.125-73.125-163.125-163.125S422 348.875 512 348.875 675.125 422 675.125 512 602 675.125 512 675.125z m0-291.93750000000006c-71.1585 0-128.8125 57.6585-128.8125 128.8125S440.846 640.8125 512 640.8125s128.8125-57.6585 128.8125-128.8125S583.154 383.1875 512 383.1875z" fill="#707070" p-id="12893"></path></svg>