<?xml version="1.0" standalone="no"?><!DOCTYPE svg PUBLIC "-//W3C//DTD SVG 1.1//EN" "http://www.w3.org/Graphics/SVG/1.1/DTD/svg11.dtd"><svg t="1615968908845" class="icon" viewBox="0 0 1024 1024" version="1.1" xmlns="http://www.w3.org/2000/svg" p-id="7578" xmlns:xlink="http://www.w3.org/1999/xlink" width="200" height="200"><defs><style type="text/css"></style></defs><path d="M512 975.417c-270.222 0-458.524-74.638-458.524-141.653V713.387C143.132 780.06 331.662 815.275 512 815.275c180.338 0 368.868-35.215 458.524-101.831v120.32c0 67.015-188.302 141.653-458.524 141.653z m0-926.834c270.222 0 458.524 74.638 458.524 141.653 0 66.959-188.302 141.654-458.524 141.654S53.476 257.138 53.476 190.236c0-67.015 188.302-141.653 458.524-141.653z m458.524 350.322c0 67.015-188.302 141.653-458.524 141.653S53.476 465.92 53.476 398.905V278.528C143.189 345.202 331.662 380.416 512 380.416c180.338 0 368.868-35.271 458.524-101.888v120.377z m0 226.19c0 66.958-188.302 141.653-458.524 141.653S53.476 692.11 53.476 625.095V487.253C143.132 553.87 331.662 589.084 512 589.084c180.338 0 368.868-35.214 458.524-101.83v137.841zM512 0C263.794 0 0 66.674 0 190.236v643.528C0 957.326 263.794 1024 512 1024s512-66.674 512-190.236V190.236C1024 66.674 760.206 0 512 0z" p-id="7579"></path></svg>