<?xml version="1.0" standalone="no"?><!DOCTYPE svg PUBLIC "-//W3C//DTD SVG 1.1//EN" "http://www.w3.org/Graphics/SVG/1.1/DTD/svg11.dtd"><svg t="1615968026504" class="icon" viewBox="0 0 1202 1024" version="1.1" xmlns="http://www.w3.org/2000/svg" p-id="2393" xmlns:xlink="http://www.w3.org/1999/xlink" width="234.765625" height="200"><defs><style type="text/css"></style></defs><path d="M488.686394 26.098417c68.295754-35.706124 178.085408-34.59309 243.709881 2.226067l421.483639 236.942635c66.336814 37.21985 63.665533 96.744898-4.318571 132.05033l-436.576377 228.750707c-68.295754 35.706124-178.085408 34.59309-243.709881-2.226068L48.103095 386.899453c-65.980644-37.175329-63.621012-96.700377 4.363092-132.05033L488.686394 26.098417zM1097.649447 594.814167l45.856992 25.68882c65.001174 36.462987 62.597021 94.83048-4.006921 129.824262l-428.206364 224.25405c-66.960113 35.349953-174.390136 33.836228-239.035139-2.226067l-414.137616-232.089808c-64.912131-36.462987-62.597021-94.83048 4.006922-129.824263l34.504048-17.80854 376.962287 214.192224c64.288832 36.507509 171.763376 37.576021 239.07966 2.226068l384.976131-214.236746z" p-id="2394"></path></svg>